<svg xmlns="http://www.w3.org/2000/svg" version="1.1" xmlns:xlink="http://www.w3.org/1999/xlink" xmlns:svgjs="http://svgjs.dev/svgjs" width="1000" height="1000"><g clip-path="url(#SvgjsClipPath1085)"><rect width="1000" height="1000" fill="#ffffff"></rect><g transform="matrix(1.4625228519195612,0,0,1.4625228519195612,134.3692870201097,100)"><svg xmlns="http://www.w3.org/2000/svg" version="1.1" xmlns:xlink="http://www.w3.org/1999/xlink" xmlns:svgjs="http://svgjs.dev/svgjs" width="500" height="547"><svg width="500" height="547" viewBox="0 0 500 547" fill="none" xmlns="http://www.w3.org/2000/svg">
<rect y="24" width="100" height="500" fill="#DA5B20"></rect>
<rect x="400" y="24" width="100" height="400" fill="#DA5B20"></rect>
<path d="M210 24.5H308V422H208L210 24.5Z" fill="#DA5B20"></path>
<path d="M168.5 24.5L259.5 24.5L134.607 523.576L39.0001 524L168.5 24.5Z" fill="#0E0E0E"></path>
<path d="M358 24.1922L442.917 24.1922L329.451 422.382L242 422.382L358 24.1922Z" fill="#0E0E0E"></path>
<path d="M194.5 446H500V524L175 523L194.5 446Z" fill="#0E0E0E"></path>
</svg></svg></g></g><defs><clipPath id="SvgjsClipPath1085"><rect width="1000" height="1000" x="0" y="0" rx="150" ry="150"></rect></clipPath></defs></svg>